<?xml version="1.0" ?><svg xmlns="http://www.w3.org/2000/svg" xmlns:xlink="http://www.w3.org/1999/xlink" version="1.1" viewBox="0 0 512 512" style="enable-background:new 0 0 512 512;" xml:space="preserve"><style type="text/css">
	.st0{fill:#231A15;}
	.st1{fill:#FFE000;}
	.st2{fill:#BCA100;}
	.st3{fill:#FC0000;}
	.st4{fill:#AA0000;}
	.st5{fill:#F94343;}
	.st6{fill:#FFFFFF;}
	.st7{fill:#A58E07;}
	.st8{opacity:0.44;}
	.st9{fill:#756204;}
	.st10{opacity:0.64;}
	.st11{opacity:0.38;}
	.st12{fill:#5D5004;}
	.st13{fill:#B7A100;}
	.st14{fill:#1D4DFC;}
	.st15{fill:#143CAF;}
	.st16{opacity:0.59;}
	.st17{opacity:0.52;}
	.st18{fill:#FF7F1F;}
	.st19{fill:#C4570C;}
	.st20{fill:#B29904;}
	.st21{fill:#87720A;}
	.st22{fill:#DDDDDD;}
	.st23{opacity:0.51;}
	.st24{fill:#878787;}
	.st25{fill:#727272;}
	.st26{opacity:0.33;}
	.st27{opacity:0.46;}
	.st28{fill:#25CBF2;}
	.st29{fill:#0A8FA5;}
	.st30{opacity:0.58;}
	.st31{fill:#04889E;}
	.st32{fill:#035A63;}
	.st33{opacity:0.65;}
	.st34{opacity:0.39;}
	.st35{fill:#AB0000;}
	.st36{fill:#1987A1;}
	.st37{fill:#3F1F0A;}
	.st38{fill:#4DEEFF;}
	.st39{fill:#21B9C1;}
	.st40{fill:#BBF9FF;}
	.st41{fill:#64ACAF;}
	.st42{fill:#089FB7;}
	.st43{opacity:0.47;}
	.st44{opacity:0.42;}
	.st45{fill:#DBF7FC;}
	.st46{fill:#B2E7ED;}
	.st47{fill:#0FA2BA;}
	.st48{opacity:0.54;}
	.st49{fill:#8E7716;}
	.st50{fill:#191401;}
	.st51{fill:#382E02;}
	.st52{fill:#605106;}
	.st53{fill:#AFACA0;}
	.st54{fill:#BC0404;}
	.st55{fill:#750000;}
	.st56{fill:#A08B0D;}
	.st57{fill:#5B4C05;}
	.st58{opacity:0.4;}
	.st59{opacity:0.5;}
	.st60{fill:#FF8383;}
	.st61{fill:#FFF0A6;}
	.st62{fill:#E2C227;}
	.st63{fill:#AA9205;}
	.st64{fill:#FFEA71;}
	.st65{opacity:0.22;}
	.st66{fill:#B19B00;}
	.st67{fill:#1989A4;}
	.st68{fill:#13A0B7;}
	.st69{fill:#C4A805;}
	.st70{fill:#FFF3A9;}
	.st71{fill:#846E03;}
	.st72{fill:#2D2502;}
	.st73{opacity:0.36;}
	.st74{fill:#4DD307;}
	.st75{fill:#328402;}
	.st76{fill:#97FF5A;}
	.st77{fill:#7A6500;}
	.st78{fill:#246001;}
	.st79{fill:#359100;}
	.st80{fill:#968022;}
	.st81{fill:#4F420B;}
	.st82{fill:#FFED83;}
	.st83{fill:#BAA335;}
	.st84{fill:#8D0991;}
	.st85{fill:#4B044F;}
	.st86{fill:#CE15CE;}
	.st87{fill:#897502;}
	.st88{fill:#493D01;}
	.st89{fill:#C9C9C9;}
	.st90{fill:#2D280E;}
	.st91{fill:#378C06;}
	.st92{fill:#183A03;}
	.st93{fill:#94FF55;}
	.st94{fill:#2E7F04;}
	.st95{fill:#63AB39;}
	.st96{fill:#AA5F04;}
	.st97{fill:#633502;}
	.st98{fill:#EF9014;}
	.st99{fill:#A05A07;}
	.st100{fill:#05616B;}
	.st101{fill:#033335;}
	.st102{fill:#0E94AA;}
	.st103{fill:#035D66;}
	.st104{opacity:0.27;}
	.st105{opacity:0.43;}
	.st106{fill:#FFF203;}
	.st107{fill:#FFA300;}
	.st108{fill:#2B3030;}
	.st109{opacity:0.28;}
	.st110{fill:#FCD17A;}
	.st111{fill:#AF853A;}
	.st112{opacity:0.31;}
	.st113{fill:#B641FF;}
	.st114{fill:#700FBC;}
	.st115{fill:#F2D0B1;}
	.st116{fill:#AF835F;}
	.st117{fill:#C17540;}
	.st118{fill:#F2BA94;}
	.st119{fill:#592909;}
	.st120{fill:#2B1204;}
	.st121{fill:#894818;}
	.st122{fill:#512609;}
	.st123{fill:#FF7F15;}
	.st124{fill:#A04A0A;}
	.st125{fill:#B7865E;}
	.st126{fill:#70350E;}
	.st127{fill:#3A1805;}
	.st128{fill:#C1521B;}
	.st129{fill:#FFC7AE;}
	.st130{fill:#FF717F;}
	.st131{fill:#6E2F0F;}
	.st132{fill:#AC8675;}
	.st133{opacity:0.25;}
	.st134{opacity:0.32;}
	.st135{fill:#FFFCC5;}
	.st136{fill:#D1CA78;}
	.st137{fill:#D37733;}
	.st138{fill:#A04F18;}
	.st139{fill:#0ABFBA;}
	.st140{fill:#057F79;}
	.st141{fill:#15F9F9;}
	.st142{fill:#09B2AD;}
	.st143{fill:#B2B2B2;}
	.st144{fill:#FFF755;}
	.st145{fill:#BCB121;}
	.st146{fill:#F90368;}
	.st147{opacity:0.49;}
	.st148{fill:#B50857;}
	.st149{fill:#FF76B4;}
	.st150{fill:#F23091;}
	.st151{fill:#FFF800;}
	.st152{fill:#C9BF05;}
	.st153{fill:#FF8500;}
	.st154{fill:#A35507;}
	.st155{fill:#AA6E50;}
	.st156{fill:#723C25;}
	.st157{fill:#EAD4B9;}
	.st158{fill:#AA8D6F;}
	.st159{fill:#B7A8A5;}
	.st160{fill:#84726F;}
	.st161{fill:#77645F;}
	.st162{fill:#51403C;}
	.st163{fill:#EABBA7;}
	.st164{fill:#BC7F69;}
	.st165{fill:#7C5039;}
	.st166{fill:#442619;}
	.st167{fill:#B7AE04;}
	.st168{fill:#BAB108;}
	.st169{fill:#7A7105;}
	.st170{fill:#352B23;}
	.st171{fill:#050403;}
	.st172{fill:#706255;}
	.st173{fill:#44382E;}
	.st174{fill:#634319;}
	.st175{fill:#35210A;}
	.st176{fill:#2D1C08;}
	.st177{fill:#0A0601;}
	.st178{fill:#9E7443;}
	.st179{fill:#704D2A;}
	.st180{fill:#D8A73A;}
	.st181{fill:#A0741C;}
	.st182{fill:#3F2F28;}
	.st183{fill:#211410;}
	.st184{fill:#FF326C;}
	.st185{fill:#BC0749;}
	.st186{fill:#68390E;}
	.st187{fill:#A5632D;}
	.st188{fill:#3D1E05;}
	.st189{fill:#331A06;}
	.st190{fill:#110801;}
	.st191{fill:#160A02;}
	.st192{fill:#663514;}
	.st193{opacity:0.29;}
	.st194{fill:#FC001F;}
	.st195{fill:#AF021F;}
	.st196{fill:#C48622;}
	.st197{fill:#8C5910;}
	.st198{fill:#846D64;}
	.st199{fill:#513B35;}
	.st200{fill:#5B4842;}
	.st201{fill:#332522;}
	.st202{fill:#47332C;}
	.st203{fill:#543E38;}
	.st204{fill:#1E1412;}
	.st205{fill:#604C43;}
	.st206{fill:#D3896C;}
	.st207{fill:#FF001F;}
	.st208{fill:#AF0824;}
	.st209{fill:#A37462;}
	.st210{fill:#5E3E34;}
	.st211{fill:#874A38;}
	.st212{fill:#4C2218;}
	.st213{fill:#5B2B20;}
	.st214{fill:#210C09;}
	.st215{fill:#99001A;}
	.st216{fill:#A08A07;}
	.st217{fill:#A08904;}
	.st218{fill:#5B4C02;}
	.st219{fill:#CECAB7;}
	.st220{fill:#727068;}
	.st221{fill:#42403A;}
	.st222{fill:#B2B0A6;}
	.st223{fill:#726F62;}
	.st224{fill:#6B4F45;}
	.st225{fill:#3A261F;}
	.st226{fill:#777468;}
	.st227{fill:#474436;}
	.st228{fill:#B78B7D;}
	.st229{fill:#845A4E;}
	.st230{fill:#3A372D;}
	.st231{fill:#43CFFF;}
	.st232{fill:#13A0BC;}
</style><g id="_x35_5"><g><path class="st0" d="M255.36,488.85c-0.87,0-1.71-0.02-2.53-0.06c-7.57-0.33-13.23-2.09-16.24-3.26c-3.57-1.02-12-3.6-23.66-8.32    c0,0,0,0,0,0c0,0-0.01,0-0.01,0c-2.18-0.89-4.37-1.8-6.49-2.72c-0.04-0.02-0.08-0.03-0.12-0.05c-8.78-3.8-17.51-8.05-25.95-12.65    c-0.82-0.45-1.66-0.91-2.5-1.38c-0.01,0-0.09-0.05-0.09-0.05l-0.94-0.53c-0.04-0.02-0.08-0.05-0.13-0.08l-5.58-3.21    c-0.03-0.02-0.05-0.03-0.07-0.04l-2.3-1.37c-0.05-0.03-0.1-0.06-0.14-0.09l-0.37-0.22c-0.04-0.02-0.09-0.05-0.12-0.07l-2.55-1.57    c-0.02-0.01-0.04-0.03-0.06-0.04c-0.01-0.01-0.02-0.01-0.03-0.02l-0.02-0.01c-0.01-0.01-0.02-0.01-0.03-0.01l-0.1-0.06    c-0.01-0.01-0.03-0.02-0.04-0.02l-6.15-3.92c-0.35-0.23-0.73-0.48-1.11-0.73l-1.61-1.07c0,0-0.01-0.01-0.01-0.01    c-0.02-0.02-0.05-0.03-0.07-0.05l-2.95-2.01c-0.74-0.51-1.48-1.03-2.22-1.55c-0.66-0.46-1.31-0.93-1.96-1.39l-1.33-0.95    c-0.02-0.02-0.05-0.04-0.07-0.05c-0.01-0.01-0.02-0.01-0.02-0.02l-2.78-2.04c-0.04-0.03-0.08-0.06-0.12-0.08h0l-2.85-2.15    c-0.04-0.03-0.04-0.03-0.09-0.07l-0.71-0.54c-0.56-0.43-1.09-0.85-1.63-1.26l-0.49-0.38c-0.03-0.03-0.07-0.05-0.1-0.08l-0.02-0.02    c-0.01-0.01-0.02-0.01-0.03-0.02l-0.87-0.69c-0.52-0.41-1.06-0.84-1.61-1.28l-0.36-0.29c-0.04-0.03-0.08-0.06-0.12-0.1l-1-0.82    c-0.55-0.45-1.09-0.89-1.64-1.34c-0.01-0.01-0.16-0.13-0.17-0.14c-0.04-0.03-0.07-0.06-0.11-0.09l-1.18-0.99    c-0.56-0.47-1.09-0.92-1.63-1.37c-0.03-0.03-0.07-0.06-0.1-0.09c-0.46-0.4-0.93-0.8-1.4-1.2c-0.55-0.48-1.11-0.96-1.68-1.45    l-2.7-2.39c-0.04-0.03-0.08-0.07-0.11-0.1l-0.34-0.31c-0.26-0.24-0.56-0.51-0.86-0.79l-0.9-0.83c-0.44-0.4-0.87-0.8-1.31-1.21    l-0.93-0.88c-0.72-0.68-1.45-1.37-2.17-2.06c-0.39-0.38-0.78-0.76-1.16-1.14l-1.72-1.69c-0.46-0.46-0.9-0.91-1.34-1.36l-1.71-1.74    c-0.49-0.5-0.96-1-1.44-1.5l-1.59-1.68c-0.54-0.58-1.08-1.16-1.61-1.75c-0.02-0.02-0.04-0.05-0.07-0.07    c-0.03-0.03-0.06-0.06-0.06-0.06l-1.27-1.39c-0.53-0.59-1.06-1.18-1.59-1.78l-0.16-0.19c-0.41-0.47-0.82-0.93-1.22-1.39    c-0.49-0.56-0.99-1.14-1.48-1.71c-0.04-0.04-0.08-0.09-0.12-0.14c-0.01-0.01-0.01-0.02-0.02-0.02c-0.44-0.51-0.87-1.03-1.31-1.55    c-0.54-0.65-1.07-1.28-1.59-1.92c-0.39-0.48-0.77-0.95-1.15-1.42l-0.15-0.19c-0.52-0.65-1.05-1.3-1.57-1.97    c-0.31-0.39-0.62-0.8-0.94-1.21l-0.55-0.71c-0.45-0.58-0.9-1.15-1.34-1.74c-0.31-0.41-0.62-0.83-0.93-1.24l-0.32-0.43    c-3.51-4.72-6.8-9.51-9.79-14.24c-1.73-2.73-3.48-5.71-5.21-8.84l-0.29-0.52c-1.1-2-2.15-4.01-3.14-5.97    c-17.48-34.76-26.65-79.44-27.25-132.8c-0.5-44.97,5.43-79.37,5.69-80.81c1.84-10.51,11.55-17.8,22.14-16.66    c0.33,0.03,3.6,0.31,8.57,0.13c1.86-0.07,3.77-0.2,5.69-0.38c8.45-0.82,20.84-3.2,31.86-9.88c0.51-0.31,1.01-0.62,1.5-0.94    c0.5-0.32,1.03-0.67,1.55-1.04c0.3-0.21,0.59-0.45,0.88-0.68c0.22-0.18,0.51-0.43,0.8-0.69c11.91-10.74,12.72-38.68,11.25-50.52    c-1.06-8.52,3.39-16.82,11.06-20.65c5.22-2.61,11.27-5,17.99-7.11c2.16-0.68,4.43-1.34,6.75-1.96    c32.12-8.67,69.11-9.49,71.35-9.53c0.14,0,0.28-0.01,0.42-0.01h25.55c0.14,0,0.28,0,0.42,0.01c2.27,0.04,40.03,0.89,72.32,9.8    c2.29,0.63,4.56,1.31,6.77,2.01c6.33,2.03,12.05,4.32,17,6.79c7.69,3.84,12.13,12.16,11.05,20.69c-0.03,0.26-0.07,0.56-0.1,0.86    l-0.03,0.25c-0.04,0.36-0.06,0.65-0.09,0.95l-0.02,0.17c-0.03,0.37-0.06,0.72-0.08,1.08l-0.19,4.21    c-0.01,0.52-0.02,1.05-0.03,1.59l-0.01,1.37l0,0.4c0.01,1.08,0.03,2.2,0.08,3.34l0.02,0.4c0.03,0.79,0.07,1.59,0.12,2.4    c1.02,16.06,5.46,28.45,12.16,33.99c0.37,0.31,0.74,0.59,1.1,0.84c0.63,0.44,1.26,0.86,1.9,1.27c0.62,0.4,1.27,0.79,1.91,1.17    c0.89,0.52,1.88,1.06,3.01,1.64c12.24,6.24,25.41,7.89,34.3,8.17c0.03,0,0.07,0,0.1,0l2.88,0.04l1.65-0.02c0.04,0,0.09,0,0.11,0    c0.73-0.02,1.36-0.04,1.88-0.07c0.02,0,0.04,0,0.06,0l0.31-0.02c0.01,0,0.03,0,0.05,0c0.05,0,0.09-0.01,0.14-0.01l0.29-0.02    c0.06,0,0.11-0.01,0.15-0.01l0.24-0.02c0.04,0,0.07-0.01,0.09-0.01c0.07-0.01,0.12-0.01,0.17-0.02c0,0,0,0,0,0    c10.56-1.09,20.24,6.24,22.07,16.67l0,0c0.25,1.44,6.19,35.84,5.69,80.81c-0.66,58.98-11.76,107.22-33,143.37    c-1.08,1.84-1.99,3.35-2.88,4.75c-11.22,17.78-25.29,34.43-41.83,49.49c-0.02,0.02-0.05,0.04-0.07,0.06    c-12.36,11.25-26.13,21.65-40.93,30.91c-0.03,0.02-0.06,0.04-0.08,0.05c-1.09,0.68-2.18,1.35-3.25,2.01    c-0.02,0.01-0.04,0.02-0.06,0.04c-4.16,2.53-8.38,4.96-12.53,7.22c-8.14,4.43-16.55,8.55-25.02,12.25    c-0.01,0.01-0.03,0.01-0.04,0.02l0,0c-2.18,0.95-4.38,1.88-6.56,2.77c-13.53,5.54-23.11,8.3-25.46,8.95    c-1.82,0.58-3.64,1.08-5.56,1.52c-0.53,0.12-1.08,0.24-1.63,0.35c-0.3,0.06-0.59,0.11-0.87,0.17c-0.51,0.09-0.98,0.18-1.44,0.25    l-0.1,0.02c-0.25,0.04-0.49,0.08-0.73,0.12c-0.67,0.1-1.34,0.19-2.01,0.27l-0.4,0.04c-0.6,0.06-1.18,0.12-1.76,0.17    c-0.23,0.02-0.48,0.04-0.72,0.05c-0.44,0.03-0.91,0.06-1.37,0.08c-0.01,0-0.01,0-0.02,0c-0.03,0-0.07,0-0.1,0l-0.54,0.02    C256.64,488.84,256,488.85,255.36,488.85z M220.96,457.43c11.64,4.71,19.73,7.08,21.94,7.7c0.41,0.11,0.81,0.25,1.2,0.41    c1.22,0.5,4.61,1.7,9.67,1.92c0.89,0.04,1.85,0.05,2.84,0.02l0.34-0.01c0.01,0,0.03,0,0.04,0h0c0.3-0.01,0.61-0.03,0.92-0.05    l0.45-0.03c0.38-0.03,0.76-0.06,1.13-0.11l0.23-0.02c0.51-0.06,0.95-0.12,1.39-0.18l0.53-0.09c0.32-0.05,0.63-0.11,0.94-0.16    l0.6-0.11c0.34-0.07,0.71-0.15,1.07-0.23c1.4-0.32,2.7-0.67,3.98-1.09c0.16-0.05,0.33-0.1,0.5-0.15    c1.61-0.44,10.3-2.88,23.22-8.17c2.02-0.83,4.07-1.69,6.09-2.57c0.01,0,0.02-0.01,0.03-0.01l0,0c7.91-3.45,15.77-7.3,23.37-11.44    c3.87-2.11,7.81-4.38,11.7-6.75c0.02-0.01,0.04-0.03,0.06-0.04c0.96-0.58,1.92-1.18,2.9-1.79c0.03-0.02,0.06-0.04,0.08-0.05    c13.77-8.61,26.56-18.27,38.02-28.7c0.02-0.02,0.05-0.04,0.07-0.06c15.09-13.75,27.9-28.91,38.08-45.04    c0.76-1.2,1.56-2.53,2.53-4.17c19.33-32.91,29.45-77.58,30.07-132.8c0.44-39.47-4.24-70.09-5.2-75.92c-0.01,0-0.01,0-0.02,0    l0.02,0c-0.03-0.2-0.06-0.38-0.09-0.52l0.04,0.53l-0.27,0.02c-0.04,0-0.08,0.01-0.12,0.01l-0.42,0.03c-0.06,0-0.11,0.01-0.17,0.01    l-0.61,0.03c-0.02,0-0.03,0-0.05,0c-0.67,0.03-1.48,0.06-2.41,0.09c-0.01,0-0.12,0-0.14,0l-1,0.02c-0.03,0-0.08,0-0.11,0    l-1.24,0.01l-2.02-0.02c-0.28,0-0.64-0.01-1.01-0.02l-0.21-0.01c-0.07,0-0.15,0-0.22-0.01c-11.04-0.35-27.55-2.45-43.3-10.49    c-1.51-0.77-2.84-1.5-4.09-2.23c-0.88-0.51-1.75-1.05-2.62-1.6c-0.9-0.57-1.78-1.16-2.65-1.77c-0.83-0.58-1.66-1.21-2.47-1.89    c-14.59-12.07-18.85-33.36-19.85-49.09c-0.06-0.97-0.11-1.92-0.15-2.85l-0.02-0.52c-0.05-1.34-0.08-2.68-0.09-3.98l0-0.52    l0.01-1.58c0.01-0.67,0.02-1.31,0.03-1.95l0.24-5.17c0.03-0.43,0.06-0.89,0.1-1.33l0.02-0.19c0.04-0.49,0.08-0.9,0.12-1.31    l0.04-0.37c0.02-0.18,0.04-0.36,0.06-0.55c-3.84-1.87-8.31-3.63-13.31-5.23c-1.92-0.62-3.91-1.21-5.92-1.76    c-30.03-8.28-65.59-9.01-67.09-9.03c-0.01,0-0.01,0-0.02,0h-25.49c-0.01,0-0.01,0-0.02,0c-1.47,0.03-36.3,0.73-66.22,8.8    c-2.05,0.55-4.04,1.13-5.93,1.73c-5.34,1.67-10.1,3.52-14.16,5.5c0.67,6.31,4.17,48.07-18.23,68.27c-0.56,0.5-1.11,0.98-1.68,1.44    c-0.63,0.5-1.3,1.03-2.05,1.56c-0.73,0.51-1.47,1-2.21,1.48c-0.69,0.45-1.35,0.86-2.02,1.26c-14.46,8.76-30.2,11.83-40.86,12.86    c-2.34,0.23-4.69,0.38-6.97,0.47c-5.16,0.19-8.92-0.02-10.62-0.14c-0.96,5.84-5.64,36.46-5.2,75.92    c0.56,50.08,8.96,91.61,24.97,123.44c0.87,1.73,1.81,3.51,2.79,5.29l0.25,0.46c1.53,2.77,3.07,5.38,4.58,7.77    c2.7,4.27,5.68,8.62,8.87,12.91l0.35,0.47c0.26,0.35,0.51,0.69,0.77,1.04c0.39,0.51,0.78,1.02,1.18,1.53l0.58,0.75    c0.26,0.34,0.53,0.69,0.8,1.02c0.48,0.61,0.96,1.2,1.43,1.79l0.16,0.2c0.34,0.43,0.69,0.85,1.03,1.28    c0.47,0.58,0.96,1.16,1.45,1.74c0.38,0.45,0.77,0.92,1.17,1.38c0.04,0.05,0.08,0.1,0.13,0.15c0,0,0,0,0,0    c0.45,0.53,0.91,1.06,1.37,1.59c0.37,0.43,0.74,0.85,1.11,1.26l0.17,0.19c0.47,0.54,0.95,1.07,1.44,1.61l1.16,1.28    c0.03,0.03,0.05,0.05,0.07,0.08c0.5,0.54,1,1.09,1.5,1.62l1.49,1.57c0.43,0.45,0.86,0.91,1.29,1.35l1.61,1.63    c0.4,0.4,0.79,0.8,1.19,1.2l1.65,1.62c0.33,0.33,0.66,0.65,0.99,0.97c0.67,0.65,1.34,1.28,2,1.9l0.85,0.8    c0.38,0.36,0.77,0.71,1.16,1.07l2.06,1.89c0.01,0.01,0.02,0.02,0.03,0.02l2.48,2.2c0.52,0.46,1.03,0.9,1.55,1.34    c0.42,0.36,0.83,0.72,1.24,1.07c0.03,0.02,0.06,0.05,0.09,0.07c0.51,0.44,1.03,0.87,1.54,1.3l1.14,0.95    c0.01,0.01,0.02,0.02,0.04,0.03l0.21,0.18c0.45,0.37,0.96,0.79,1.47,1.21l0.98,0.8c0.01,0.01,0.02,0.01,0.03,0.02l0.41,0.33    c0.44,0.35,0.94,0.75,1.44,1.15l0.83,0.66c0,0,0.01,0.01,0.01,0.01c0.02,0.02,0.04,0.03,0.06,0.05l0.48,0.37    c0.5,0.39,1,0.78,1.49,1.16l0.64,0.49c0.06,0.04,0.12,0.09,0.15,0.12l2.55,1.92c0.03,0.02,0.07,0.05,0.1,0.07l2.6,1.91    c0.04,0.03,0.09,0.06,0.15,0.11l1.21,0.86c0.61,0.44,1.22,0.87,1.82,1.29c0.68,0.47,1.36,0.96,2.05,1.43l2.77,1.88    c0.01,0.01,0.03,0.02,0.04,0.03l8.17,5.27c0.05,0.03,0.1,0.06,0.15,0.1l0.05,0.03c0.03,0.02,0.05,0.03,0.08,0.05l2.38,1.46    c0.04,0.02,0.1,0.06,0.13,0.08l0.48,0.29c0.03,0.02,0.06,0.03,0.09,0.05l2.04,1.21c0.03,0.02,0.06,0.03,0.08,0.05l3.82,2.22    c0.02,0.01,0.11,0.06,0.13,0.07l1.33,0.75c0.05,0.03,0.1,0.05,0.14,0.08l0.74,0.42c0.01,0.01,0.1,0.05,0.11,0.06    c0.83,0.46,1.6,0.89,2.37,1.31c7.88,4.29,16.03,8.26,24.23,11.81c0.01,0.01,0.03,0.01,0.04,0.02c2,0.86,4.05,1.73,6.11,2.56    C220.95,457.42,220.95,457.43,220.96,457.43z M165.33,453.03c0.01,0.01,0.03,0.02,0.04,0.02    C165.36,453.05,165.35,453.04,165.33,453.03z M164.84,452.72c0.14,0.09,0.28,0.19,0.41,0.27    C165.13,452.91,164.96,452.8,164.84,452.72z M381.38,413.6h0.01H381.38z M440.69,147.64c-0.01,0-0.01,0-0.02,0    C440.68,147.64,440.69,147.64,440.69,147.64L440.69,147.64z M71.26,147.63C71.26,147.63,71.26,147.63,71.26,147.63    C71.26,147.63,71.26,147.63,71.26,147.63z M439.63,146.97c0.04,0.1,0.09,0.18,0.14,0.26l-0.03-0.64l-0.87-9.51L439.63,146.97z     M439.57,146.76C439.57,146.76,439.57,146.76,439.57,146.76C439.57,146.76,439.57,146.76,439.57,146.76L439.57,146.76z     M437.32,126.49c-0.01,0-0.02,0-0.03,0C437.31,126.49,437.32,126.49,437.32,126.49z M437.67,126.47c-0.06,0-0.13,0.01-0.19,0.01    C437.55,126.47,437.63,126.47,437.67,126.47z"/></g><g><g><g><path class="st180" d="M450.09,144.92c-0.87-4.98-5.49-8.42-10.51-7.89c-0.32,0.03-31.89,3.18-56.42-13.97      c-18.95-13.25-18.99-49.21-17.41-61.94c0.51-4.05-1.59-7.98-5.23-9.8c-32.45-16.23-89.17-17.44-91.56-17.48      c-0.06,0-0.12,0-0.18,0h-25.55c-0.06,0-0.12,0-0.18,0c-2.4,0.04-59.11,1.25-91.56,17.48c-3.64,1.82-5.74,5.75-5.24,9.79      c1.58,12.74,1.54,48.7-17.41,61.95c-24.53,17.15-56.1,14.01-56.4,13.98c-5.04-0.57-9.65,2.89-10.53,7.89      c-0.25,1.4-6.02,34.89-5.53,78.85c0.67,59.64,12.19,107.6,34.24,142.55c27.37,43.38,66.68,70.76,94.83,86.1      c27.81,15.15,50.16,21.77,54.57,23c2.25,0.93,7.68,2.77,15.33,2.77c4.64,0,10.1-0.68,16.16-2.64      c3.02-0.82,26.05-7.34,55.02-23.12c28.16-15.34,67.46-42.72,94.83-86.1c22.05-34.95,33.57-82.91,34.24-142.55      C456.1,179.8,450.33,146.32,450.09,144.92z"/></g><g class="st26"><path class="st6" d="M221.35,452.76c-33.64-20.8-62.78-46.53-86.6-78.05c-11.87-15.7-20.57-32.68-28.1-50.81      c-7.32-17.64-11.08-35.53-13.68-54.28c0.29,2.18,0.59,4.36,0.88,6.55c-4.1-26.27-9.47-57.06,7-80.59      c8.26-11.8,18.13-19.71,29.92-27.98c4.28-3,8.63-5.91,12.93-8.88c4-2.77,8.2-5.23,12.25-7.91c3.2-2.92,6.12-6.1,8.88-9.45      c10.13-13.46,19.87-26.93,32.26-38.58c7.31-6.87,15.88-12.93,25.91-14.92c7.19-1.43,14.51-1.73,21.8-2.27      c28.31-5.29,57.01-6.02,85.76-5.71c11.59,0.13,23.21,0.33,34.81,0.28c-0.5-7.81-0.15-14.74,0.38-19.03      c0.51-4.05-1.59-7.98-5.23-9.8c-32.45-16.23-89.17-17.44-91.56-17.48c-0.06,0-0.12,0-0.18,0h-25.55c-0.06,0-0.12,0-0.18,0      c-2.4,0.04-59.11,1.25-91.56,17.48c-3.64,1.82-5.74,5.75-5.24,9.79c1.58,12.74,1.54,48.7-17.41,61.95      c-24.53,17.15-56.1,14.01-56.4,13.98c-5.04-0.57-9.65,2.89-10.53,7.89c-0.25,1.4-6.02,34.89-5.53,78.85      c0.67,59.64,12.19,107.6,34.24,142.55c27.37,43.38,66.68,70.76,94.83,86.1c27.81,15.15,50.16,21.77,54.57,23      c2.25,0.93,7.68,2.77,15.33,2.77c3.5,0,7.47-0.39,11.81-1.42C251.4,469.75,236.04,461.84,221.35,452.76z"/></g><g><path class="st181" d="M450.09,144.92c-0.87-4.98-5.49-8.42-10.51-7.89c-0.28,0.03-25.48,2.52-48.33-9.14      c-1.05,12.35-3.19,24.75-4.92,36.56c-2.42,16.45-7.02,32.31-13.32,47.69c-9.78,23.85-19.23,47.86-34.68,68.68      c-9.66,13.02-19.52,27.09-31.19,38.74c-11.52,11.5-25.12,21.29-38.28,30.61c-5.3,3.75-10.93,7.04-16.8,9.82      c-14.46,6.84-29.35,13.78-44.85,18.11c-15.35,4.29-31.97,5.76-47.53,7.31c-5.86,0.59-11.72,0.55-17.57-0.03      c-12.71-1.28-25.77-2.63-38.3-5.36c-1.57-0.34-3.13-0.76-4.67-1.21c26.58,36.22,60.97,59.81,86.32,73.62      c27.81,15.15,50.16,21.77,54.57,23c2.25,0.93,7.68,2.77,15.33,2.77c4.64,0,10.1-0.68,16.16-2.64      c3.02-0.82,26.05-7.34,55.02-23.12c28.16-15.34,67.46-42.72,94.83-86.1c22.05-34.95,33.57-82.91,34.24-142.55      C456.1,179.8,450.33,146.32,450.09,144.92z"/></g></g><g class="st105"><path class="st182" d="M338.68,43.24c2.15,0.59,4.26,1.22,6.34,1.89v396.31c-2.15,1.38-4.26,2.7-6.34,3.97V43.24z M381.38,413.61     c2.13-1.94,4.24-3.93,6.34-5.98V125.97c-1.54-0.9-3.06-1.87-4.56-2.92c-0.61-0.43-1.21-0.89-1.78-1.36V413.61z M210.59,464.66     c2.21,0.95,4.33,1.84,6.34,2.66V42.4h-6.34V464.66z M424.08,361.85c2.23-3.8,4.35-7.74,6.34-11.83v-212.8     c-1.9-0.05-4.03-0.16-6.34-0.37V361.85z M295.99,466.94c2.02-0.83,4.14-1.72,6.34-2.68V42.4h-6.34V466.94z M259.63,42.4h-6.34     v435.72c0.67,0.03,1.36,0.05,2.07,0.05c1.35,0,2.78-0.07,4.27-0.2V42.4z M82.5,351.88c2,3.98,4.12,7.82,6.34,11.52V136.77     c-2.3,0.22-4.43,0.36-6.34,0.43V351.88z M125.2,125.4v283.13c2.1,2.03,4.22,4,6.34,5.92V120.87c-0.86,0.77-1.75,1.51-2.7,2.18     C127.64,123.89,126.42,124.66,125.2,125.4z M167.89,442.03c2.15,1.37,4.27,2.69,6.34,3.94V42.99c-2.14,0.58-4.26,1.19-6.34,1.85     V442.03z"/></g><g><g><path class="st182" d="M450.09,144.92c-0.87-4.98-5.49-8.42-10.51-7.89c-0.32,0.03-31.89,3.18-56.42-13.97      c-18.95-13.25-18.99-49.21-17.41-61.94c0.51-4.05-1.59-7.98-5.23-9.8c-32.45-16.23-89.17-17.44-91.56-17.48      c-0.06,0-0.12,0-0.18,0h-25.55c-0.06,0-0.12,0-0.18,0c-2.4,0.04-59.11,1.25-91.56,17.48c-3.64,1.82-5.74,5.75-5.24,9.79      c1.58,12.74,1.54,48.7-17.41,61.95c-24.53,17.15-56.1,14.01-56.4,13.98c-5.04-0.57-9.65,2.89-10.53,7.89      c-0.25,1.4-6.02,34.89-5.53,78.85c0.67,59.64,12.19,107.6,34.24,142.55c27.37,43.38,66.68,70.76,94.83,86.1      c27.81,15.15,50.16,21.77,54.57,23c2.25,0.93,7.68,2.77,15.33,2.77c4.64,0,10.1-0.68,16.16-2.64      c3.02-0.82,26.05-7.34,55.02-23.12c28.16-15.34,67.46-42.72,94.83-86.1c22.05-34.95,33.57-82.91,34.24-142.55      C456.1,179.8,450.33,146.32,450.09,144.92z M405.12,356.06c-48.14,76.28-137.89,100.74-138.79,100.97      c-0.19,0.05-0.38,0.11-0.56,0.17c-10.48,3.46-17.5,0.82-18.39,0.46c-0.62-0.33-1-0.44-1.71-0.62      c-0.9-0.24-90.66-24.69-138.79-100.97c-41.19-65.27-31.19-169.6-27.25-199.55c13.31-0.07,38.48-2.51,60.22-17.71      c25.8-18.04,26.83-56.77,26.04-72.9c28.96-11.61,75.27-12.81,77.43-12.86h25.35c2.16,0.05,48.48,1.25,77.44,12.86      c-0.79,16.13,0.24,54.86,26.04,72.9c21.74,15.2,46.91,17.63,60.22,17.71C436.32,186.46,446.31,290.78,405.12,356.06z"/></g><g><path class="st183" d="M450.09,144.92c-0.87-4.98-5.49-8.42-10.51-7.89c-0.12,0.01-4.95,0.49-12.22,0.07      c-0.68,5.88-1.65,11.77-2.97,17.65c0,0.48-0.02,0.96-0.03,1.44c2.98,0.21,5.68,0.3,8.01,0.31      c3.95,29.95,13.94,134.28-27.25,199.55c-48.14,76.28-137.89,100.74-138.79,100.97c-0.19,0.05-0.38,0.11-0.56,0.17      c-10.48,3.46-17.5,0.82-18.39,0.46c-0.62-0.33-1-0.44-1.71-0.62c-0.78-0.21-67.39-18.35-116.62-72.06      c-7.31-1.22-14.63-2.81-21.94-4.78c-2.91-0.69-5.78-1.47-8.62-2.29c26.67,36.73,61.42,60.59,86.98,74.51      c27.81,15.15,50.16,21.77,54.57,23c2.25,0.93,7.68,2.77,15.33,2.77c4.64,0,10.1-0.68,16.16-2.64      c3.02-0.82,26.05-7.34,55.02-23.12c28.16-15.34,67.46-42.72,94.83-86.1c22.05-34.95,33.57-82.91,34.24-142.55      C456.1,179.8,450.33,146.32,450.09,144.92z"/></g></g><g><path class="st159" d="M163.18,58.87v1.03c0,0.96-0.25,1.86-0.73,2.69c-0.28,0.36-0.56,0.72-0.83,1.08     c-0.67,0.66-1.45,1.12-2.36,1.37c-0.47,0.06-0.95,0.13-1.42,0.19c-0.73,0.03-1.42-0.13-2.06-0.46c-0.66-0.22-1.23-0.58-1.72-1.1     c-0.52-0.48-0.89-1.06-1.1-1.72c-0.33-0.64-0.49-1.32-0.46-2.06v-1.03c0-0.96,0.25-1.86,0.73-2.69c0.28-0.36,0.56-0.72,0.83-1.08     c0.67-0.66,1.45-1.12,2.36-1.37c0.47-0.06,0.95-0.13,1.42-0.19c0.73-0.03,1.42,0.13,2.06,0.46c0.66,0.22,1.23,0.58,1.72,1.1     c0.52,0.48,0.89,1.06,1.1,1.72C163.05,57.45,163.2,58.14,163.18,58.87z M73.44,142.05c-6.87,0-6.88,10.67,0,10.67     C80.3,152.73,80.32,142.05,73.44,142.05z M141.37,405.56c-6.87,0-6.88,10.67,0,10.67C148.24,416.23,148.25,405.56,141.37,405.56z      M74.47,289.25c-6.87,0-6.88,10.67,0,10.67C81.33,299.92,81.34,289.25,74.47,289.25z M349.28,56.82c0.22-0.66,0.58-1.23,1.1-1.72     c0.48-0.52,1.06-0.89,1.72-1.1c0.64-0.33,1.32-0.49,2.06-0.46c0.47,0.06,0.95,0.13,1.42,0.19c0.9,0.25,1.69,0.71,2.36,1.37     c0.28,0.36,0.56,0.72,0.83,1.08c0.48,0.83,0.73,1.73,0.73,2.69v1.03c0.03,0.73-0.13,1.42-0.46,2.06     c-0.22,0.66-0.58,1.23-1.1,1.72c-0.48,0.52-1.06,0.89-1.72,1.1c-0.64,0.33-1.32,0.49-2.06,0.46c-0.47-0.06-0.95-0.13-1.42-0.19     c-0.9-0.25-1.69-0.71-2.36-1.37c-0.28-0.36-0.56-0.72-0.83-1.08c-0.48-0.83-0.73-1.73-0.73-2.69v-1.03     C348.8,58.14,348.95,57.45,349.28,56.82z M438.56,152.73c6.88,0,6.87-10.67,0-10.67C431.68,142.05,431.7,152.73,438.56,152.73z      M370.63,416.23c6.88,0,6.87-10.67,0-10.67C363.75,405.56,363.76,416.23,370.63,416.23z M437.53,299.92     c6.88,0,6.87-10.67,0-10.67C430.65,289.25,430.67,299.92,437.53,299.92z M257.68,38.09c-6.87,0-6.88,10.67,0,10.67     C264.55,48.77,264.56,38.09,257.68,38.09z M256.65,462.17c-6.87,0-6.88,10.67,0,10.67C263.52,472.84,263.53,462.17,256.65,462.17     z"/></g><g><g><g><path class="st183" d="M344.48,241.44c-6.92-15.63-32.3-19.86-44.17-20.99c-2.39-4.8-6.59-12.77-11.84-20.78       c-12.36-18.85-23.86-27.78-35.12-27.34c-11.23,0.45-21.6,9.43-31.68,27.46c-3.96,7.08-7.02,14.07-8.87,18.66       c-14.3,1.06-45.41,5.69-46.76,25.81c-1.17,17.42,19.2,34.25,29.68,41.71c-0.96,4.41-2.17,10.81-2.8,17.53       c-1.78,19.12,2.28,30.92,12.06,35.07c2.6,1.11,5.46,1.66,8.6,1.66c7.4,0,16.33-3.08,27.04-9.28       c5.46-3.17,10.33-6.55,13.68-9.01c11.87,6.75,38.23,20.29,52.98,16.62c4.48-1.11,8-3.64,10.18-7.31       c7.88-13.26,2.77-34.78-0.65-45.62c3.59-2.53,8.43-6.16,13.08-10.35C343.91,262.62,348.82,251.23,344.48,241.44z        M318.86,262.79c-7.67,6.96-16.34,12.37-16.42,12.42l-5.88,3.66l2.52,6.45c4.26,10.93,8.32,29.46,4.26,37.07       c-1.8,0.57-8.85,0.36-24.25-6.56c-11.17-5.02-20.97-10.97-21.07-11.03l-5.04-3.07l-4.57,3.73       c-12.73,10.41-31.02,20.26-36.92,17.76c-0.7-0.3-3.25-4.43-2.01-18.02c0.96-10.54,3.68-20.64,3.71-20.74l1.61-5.93l-5.19-3.29       c-11.65-7.4-27.5-21.9-26.96-29.89c0.32-4.74,18.59-10.08,36.2-10.57l5.73-0.16l1.9-5.41c5.86-16.65,18.68-39.91,27.52-40.27       c0.04,0,0.09,0,0.13,0c3.42,0,10.72,5.13,20.3,19.69c7.47,11.36,12.81,23.07,12.86,23.18l2.11,4.64l5.09,0.24       c12.71,0.6,31.86,4.92,34.75,11.46C329.6,248.97,328.85,253.74,318.86,262.79z"/></g><g><path class="st182" d="M195.72,285.96c-0.96,4.41-2.17,10.81-2.8,17.53c-0.1,1.07-0.17,2.11-0.24,3.14       c5.61-0.19,11.2-0.56,16.78-1.12c0.01-0.1,0.02-0.19,0.02-0.29c0.96-10.54,3.68-20.64,3.71-20.74l1.61-5.93l-5.19-3.29       c-11.65-7.4-27.5-21.9-26.96-29.89c0.32-4.74,18.59-10.08,36.2-10.57l5.73-0.16l1.9-5.41c5.86-16.65,18.68-39.91,27.52-40.27       c0.04,0,0.09,0,0.13,0c3.42,0,10.72,5.13,20.3,19.69c7.47,11.36,12.81,23.07,12.86,23.18l2.11,4.64l5.09,0.24       c3.39,0.16,7.23,0.59,11.11,1.25c1.57-3.09,3.07-6.21,4.48-9.38c0.83-2.1,1.63-4.21,2.4-6.34c-4.64-0.95-8.93-1.5-12.19-1.81       c-2.39-4.8-6.59-12.77-11.84-20.78c-12.36-18.85-23.86-27.78-35.12-27.34c-11.23,0.45-21.6,9.43-31.68,27.46       c-3.96,7.08-7.02,14.07-8.87,18.66c-14.3,1.06-45.41,5.69-46.76,25.81C164.87,261.68,185.24,278.51,195.72,285.96z"/></g></g><g><g><path class="st184" d="M218.64,226.48c0,0,15.79-45.06,35.05-45.83c19.26-0.77,41.21,47.76,41.21,47.76s35.43,1.63,41.98,16.41       s-30.04,37.48-30.04,37.48s11.94,30.45,3.47,44.7c-8.47,14.25-56.61-15.08-56.61-15.08s-30.81,25.2-45.44,18.98       s-3.08-48.61-3.08-48.61s-31.97-20.3-30.81-37.48C175.5,227.64,218.64,226.48,218.64,226.48z"/></g><g><path class="st185" d="M264.08,188.74c0,0,19.26,18.87,28.11,44.29c0,0,35.05,1.24,41.21,11.79       c6.16,10.55-30.81,35.71-30.81,35.71s9.24,19.19,7.7,36.1c-1.54,16.92-13.86,13.28-29.65,5.66s-27.34-15.72-27.34-15.72       s-18.87,16.52-31.97,20.43c-13.09,3.91-16.56-8.47-16.56-8.47s5.4,3.91,17.91-1.9c12.51-5.81,31-30.28,31-30.28       s22.34,25.9,37.36,24.42c15.02-1.48-10.4-39.51-10.4-39.51s34.28-9.31,35.05-20.88c0.77-11.57-37.36-4.39-37.36-4.39       S277.18,204.53,264.08,188.74z"/></g><g class="st8"><path class="st6" d="M258.69,186.44c0,0-23.49-1.17-33.12,43.12c0,0-40.97-0.18-45.06,12.11s31.2,38.85,31.2,38.85       s-8.86,21.57-5.01,31.71c3.85,10.14,6.67-14.2,15.27-22.44c8.6-8.24,8.22-11.57,3.6-16.46c-4.62-4.88-35.82-14.45-34.28-26.04       c1.54-11.58,45.83-5.63,45.83-5.63S239.82,191.46,258.69,186.44z"/></g><g><path class="st6" d="M255.62,199.14c0,3.13-2.66,5.79-5.79,5.79c-3.14,0-5.79-2.65-5.79-5.79c0-3.13,2.66-5.79,5.79-5.79       C252.97,193.34,255.62,196,255.62,199.14z M237.51,208.58c-6.68,0-6.69,10.38,0,10.38       C244.19,218.96,244.2,208.58,237.51,208.58z M242.13,224.84c-3.6,0-3.6,5.59,0,5.59C245.73,230.43,245.73,224.84,242.13,224.84       z"/></g><g><path class="st184" d="M294.51,295.42c-6.95,0-6.94-10.78,0-10.78C301.46,284.63,301.44,295.42,294.51,295.42z M299.9,299.3       c-5.91,0-5.92,9.19,0,9.19C305.81,308.48,305.82,299.3,299.9,299.3z M288.34,315.36c-3.08,0-3.09,4.79,0,4.79       C291.43,320.15,291.43,315.36,288.34,315.36z"/></g></g></g></g></g></svg>